<svg xmlns="http://www.w3.org/2000/svg" viewBox="0 0 400 400">
  <!--
    ╔═══════════════════════════════════════════════════════╗
    ║   CCS · Cyber Code Syndicate                          ║
    ║   https://github.com/ccs-devhub                       ║
    ╚═══════════════════════════════════════════════════════╝
    If you are reading this, you love details as much as I do.
    Want to join us? ;D

      Designed by   Cristian D. Moreno — @Kyonax
      Role          Founding Member
      ORCID         https://orcid.org/0009-0006-4459-5538
  -->
  <path fill="currentColor" d="M 27 200 l 0 173 173 0 173 0 0 -173 0 -173 -173 0 -173 0 0 173 z m 332 0 l 0 159 -159.5 0 -159.5 0 0 -159 0 -159 159.5 0 159.5 0 0 159 z M 52 120 l 0 68 48 0 48 0 0 -20 0 -20 51.5 0 51.5 0 0 20 0 20 21.5 0 21.5 0 0 -41.5 0 -41.5 -94.5 0 -94.5 0 0 20 0 20 -5 0 -5 0 0 -25 0 -25 105 0 105 0 0 51.5 0 51.5 -126.5 0 -126.5 0 0 48 0 48 126.3 0.2 126.2 0.3 0.3 5.3 0.3 5.2 -126.5 0 -126.6 0 0 21.5 0 21.5 148 0 148 0 0 -48 0 -48 -126.2 -0.2 -126.3 -0.3 -0.3 -5.3 -0.3 -5.2 126.5 0 126.6 0 0 -94.5 0 -94.5 -148 0 -148 0 0 68 z M 159 173.5 l 0 14.5 41 0 41 0 0 -14.5 0 -14.5 -41 0 -41 0 0 14.5 z"/>
</svg>
